<svg width="288" height="288" xmlns="http://www.w3.org/2000/svg">

 <g>
  <title>background</title>
  <rect fill="none" id="canvas_background" height="602" width="802" y="-1" x="-1"/>
 </g>
 <g>
  <title>Layer 1</title>
  <g transform="matrix(0.9167, 0, 0, 0.9167, 11.6435, 12.0655)" id="SvgjsG1008">
   <svg fill="#ffffff" id="svg_1" viewBox="0 0 16 16" height="288" width="288">
    <path id="svg_2" class="color000 svgShape" fill="#ffffff" d="m3.90625,2c-2.14752,0 -3.94137,1.7203 -3.90625,3.875c0.02827,1.7344 1.30758,3.3994 2.71875,4.8125c1.41117,1.4131 3.02348,2.59655 3.875,3.21875l0.28125,0.1875l0.28125,-0.1875c0.85087,-0.6217 2.48886,-1.8339 3.90625,-3.25c0.14073,-0.1406 0.26952,-0.2928 0.40625,-0.4375l-0.375,-0.84375l-0.0625,-0.15625c-0.22184,0.2556 -0.44202,0.5047 -0.6875,0.75c-0.38362,0.3832 -0.76946,0.76135 -1.15625,1.09375c-0.8649,0.7434 -1.70351,1.33425 -2.3125,1.78125c-0.74887,-0.5501 -1.81067,-1.35395 -2.875,-2.34375c-0.18537,-0.1724 -0.37923,-0.34775 -0.5625,-0.53125c-1.33923,-1.3411 -2.41764,-2.87515 -2.4375,-4.09375c-0.02598,-1.5937 1.29832,-2.875 2.90625,-2.875c1.10541,0 2.03884,0.595 2.53125,1.5l0.4375,0.8125l0.4375,-0.8125c0.49241,-0.905 1.42584,-1.5 2.53125,-1.5c0.20938,0 0.56042,0.05697 0.73633,0.10938c1.2558,0.3151 2.16992,1.41162 2.16992,2.76562l0.78125,-1.1875c-0.5115,-1.5541 -1.96033,-2.6875 -3.6875,-2.6875c-1.24369,0 -2.25787,0.6537 -2.96875,1.5625c-0.71088,-0.9088 -1.72506,-1.5625 -2.96875,-1.5625zm6.59375,2.23242l-1.5957,3.72266l-0.96485,-1.44922l-1.24804,2.49414l-1.69141,0l0,1l2.30859,0l0.75391,-1.50586l1.0332,1.55274l1.4043,-3.27735l1.41602,3.30078l1.18164,-1.86914l0.52929,1.79883l1.9043,0l0,-1l-1.15625,0l-0.94141,-3.19922l-1.34765,2.13086l-1.58594,-3.69922z"/>
   </svg>
  </g>
 </g>
</svg>